# xmcd CD database file
#
# Track frame offsets:
#	150
#	18762
#	36163
#	54705
#	74229
#	89317
#	109858
#	135824
#	156479
#	178068
#	204788
#	225501
#	244348
#
# Disc length: 3502 seconds
#
# Revision: 4
# Processed by: cddbd v1.4PL0 Copyright (c) Steve Scherf et al.
# Submitted via: CDex 1.50Beta7
#
DISCID=ad0dac0d
DTITLE=Louis Armstrong - Swing That Music Mlady Svet Edition
DYEAR=1900
DGENRE=Blues
TTITLE0=Ain't misbehavin'
TTITLE1=Back o'town blues
TTITLE2=My bucket's got a hole in it
TTITLE3=Indiana
TTITLE4=Sleepy time down south
TTITLE5=That's my desire
TTITLE6=Basin street blues
TTITLE7=Someday
TTITLE8=The Gipsy
TTITLE9=Struttin' with some barbecue
TTITLE10=Black and blue
TTITLE11=West end blues
TTITLE12=Dindn't he ramble
EXTD=
EXTT0=
EXTT1=
EXTT2=
EXTT3=
EXTT4=
EXTT5=
EXTT6=
EXTT7=
EXTT8=
EXTT9=
EXTT10=
EXTT11=
EXTT12=
PLAYORDER=
